# xmcd
#
# Track frame offsets:
#	150
#	21789
#	40508
#	60926
#	81018
#	101740
#	122564
#	141147
#	161039
#	177662
#	202521
#	219114
#	238014
#	256587
#	274996
#	296631
#	318033
#
# Disc length: 4611 seconds
#
# Revision: 0
# Processed by: cddbd v1.5.2PL0 Copyright (c) Steve Scherf et al.
# Submitted via: audiograbber 1.83.01
#
DISCID=de120111
DTITLE=Various Artist - XMiX Chartbusters 96
DYEAR=2013
DGENRE=Pop
TTITLE0=Mike Posner - The Way It Used To Be
TTITLE1=Wale Feat. Rihanna - Bad (Tonytone Remix)
TTITLE2=Bonnie McKee - American Girl
TTITLE3=Robin Thicke Feat. Kendrick Lamar - Give It 2 U
TTITLE4=Lana Del Rey - Summertime Sadness (Remix)
TTITLE5=Jonas Brothers - First Time
TTITLE6=Yandel - Hable De Ti
TTITLE7=Neighbourhood - Sweater Weather
TTITLE8=One Direction - Best Song Ever
TTITLE9=Justin Timberlake - Take Back The Night
TTITLE10=Zac Brown Band - Jump Right In
TTITLE11=Pink Feat. Lily Allen - True Love
TTITLE12=Demi Lovato - Made In The USA
TTITLE13=Brett Eldredge - Dont Ya
TTITLE14=Taylor Swift Feat. Ed Sheeran - Everything Has Changed
TTITLE15=Keith Urban - Little Bit Of Everything
TTITLE16=Justin Timberlake Feat. Jay-Z - Holy Grail
EXTD=
EXTT0=
EXTT1=
EXTT2=
EXTT3=
EXTT4=
EXTT5=
EXTT6=
EXTT7=
EXTT8=
EXTT9=
EXTT10=
EXTT11=
EXTT12=
EXTT13=
EXTT14=
EXTT15=
EXTT16=
PLAYORDER=
